<svg width="349" height="102" viewBox="0 0 349 102" fill="none" xmlns="http://www.w3.org/2000/svg">
<path d="M92.3139 2.39548C66.4505 3.78638 27.967 10.9727 20.8001 15.7637C16.0481 19.0091 15.6586 23.2591 19.8653 26.6591L21.8128 28.2818L19.7095 31.2955C15.7365 37.0909 13.6331 47.6773 15.5807 52.1591C16.0481 53.3182 16.2818 52.5455 16.3597 49.4546C16.4376 41.5728 21.2675 32.8409 27.7333 28.8228C29.603 27.6637 31.161 26.4273 31.161 26.1955C31.161 25.8864 29.9925 25.4227 28.5124 25.1909C27.0322 24.8818 25.0068 24.0318 23.994 23.1818C21.8128 21.3273 22.6697 20.5546 28.4344 19.3182C54.5315 13.6773 91.1454 10.3546 118.411 11.05C149.961 11.9 171.228 16.15 190.86 25.6546L199.039 29.5955L193.586 30.2137C190.626 30.6 182.368 31.2955 175.279 31.7591C168.268 32.3 163.205 32.9182 163.984 33.2273C168.502 34.85 204.882 36.8591 241.106 37.5546C270.943 38.0955 276.474 38.7909 284.809 42.8864C291.275 46.0546 297.741 52.3909 301.091 58.8818L303.194 62.9773L302.649 56.95C302.337 53.6273 301.792 49.7637 301.402 48.5273C298.676 39.0227 285.822 31.6046 268.216 29.2864C263.153 28.5909 253.648 28.5909 231.369 29.2091L201.376 29.9818L195.69 25.7318C172.631 8.57729 135.082 0.0772934 92.3139 2.39548Z" fill="#282828"/>
<path d="M120.437 22.4863C108.985 23.2591 93.2489 25.6545 85.7703 27.9727C80.0835 29.6727 69.333 34.6182 69.333 35.5454C69.333 36.4727 77.9022 39.95 82.4205 40.8773C88.7306 42.1909 105.246 41.9591 113.348 40.4136L120.359 39.1L113.348 38.4818C101.818 37.5545 91.0676 36.2409 89.3538 35.6227C88.1852 35.1591 90.1328 34.5409 96.5986 33.3818C113.036 30.3682 129.551 28.4363 154.246 26.6591C163.438 25.9636 171.073 25.2682 171.229 25.1909C171.696 24.65 158.453 23.0272 147.78 22.4091C135.472 21.5591 134.693 21.5591 120.437 22.4863Z" fill="#282828"/>
<path d="M44.8716 41.3409C39.3405 43.4272 33.7316 48.759 32.3294 53.3181C31.862 54.8636 32.4073 54.5545 35.3675 51.5409C37.393 49.4545 40.8207 46.9818 43.0798 45.9772C48.1434 43.659 57.2579 42.1909 63.0227 42.809L67.3852 43.1954L64.6586 41.959C60.9193 40.1818 49.0003 39.7954 44.8716 41.3409Z" fill="#282828"/>
<path d="M53.9862 53.6273C44.5601 56.6409 38.9512 64.2136 38.9512 73.7182C38.9512 80.9818 44.7159 89.4818 51.5713 92.3409C55.2326 93.8091 63.8018 93.8864 67.3074 92.4182C70.9688 90.8727 76.1882 86.0818 78.0579 82.45C83.0436 72.7136 78.9148 60.0409 69.1771 55.3273C64.0355 52.8545 58.3487 52.2364 53.9862 53.6273ZM65.6715 55.9455C76.2661 59.7318 81.0181 71.6318 75.8766 81.7545C69.255 94.9682 49.9353 94.9682 43.3137 81.8318C35.8351 66.9182 50.0132 50.4591 65.6715 55.9455Z" fill="#F07900"/>
<path d="M57.4137 59.1135C58.9717 62.4363 59.5949 62.5135 61.153 59.4999C62.7889 56.409 62.711 56.409 59.2054 56.409H56.0894L57.4137 59.1135Z" fill="#F07900"/>
<path d="M51.0261 58.5727C49.7797 59.3454 48.1437 60.659 47.5205 61.3545C46.5078 62.6681 46.6636 62.9772 49.3122 65.45C52.5062 68.309 55.4665 68.6181 55.9339 66.2227C56.3234 64.1363 55.4665 60.0409 54.298 58.4954C53.441 57.259 53.2073 57.259 51.0261 58.5727Z" fill="#F07900"/>
<path d="M64.2694 60.5817C62.6335 64.909 62.9451 67.5363 65.2042 67.8454C67.1518 68.1545 70.5795 66.1454 71.748 63.9817C72.6828 62.2045 71.1248 60.0408 67.6192 58.2636C65.5937 57.259 65.5158 57.259 64.2694 60.5817Z" fill="#F07900"/>
<path d="M71.9037 67.1499C69.8783 69.6999 70.1899 70.3181 73.7734 70.3181C76.5778 70.3181 76.8115 69.8545 75.4093 66.8408C74.3187 64.4454 74.0071 64.4454 71.9037 67.1499Z" fill="#F07900"/>
<path d="M43.3134 67.3818C42.3786 70.9363 42.6902 71.7091 45.0272 71.3227C49.3118 70.6272 49.4676 70.3954 47.1306 68C44.4819 65.2181 43.9366 65.1409 43.3134 67.3818Z" fill="#F07900"/>
<path d="M57.2578 70.7817C55.6998 72.3272 56.0114 74.0272 58.0368 75.4181C59.4391 76.3454 59.9065 76.2681 61.3866 75.2636C63.4121 73.8727 63.5679 72.4045 61.854 70.7817C60.296 69.2363 58.8937 69.2363 57.2578 70.7817Z" fill="#F07900"/>
<path d="M44.4044 74.1046C42.9243 74.5682 42.5348 75.1092 42.7685 76.5773C43.0022 78.5864 44.9498 82.6819 45.6509 82.6819C46.8194 82.6819 50.7145 80.1319 51.7272 78.6637C53.2852 76.5001 53.2852 76.1137 51.7272 74.6455C50.4808 73.3319 47.7542 73.1773 44.4044 74.1046Z" fill="#F07900"/>
<path d="M67.0737 74.7228C66.6063 75.6501 66.6063 76.6546 67.0737 77.4274C67.8527 78.8183 72.5268 81.9092 73.7733 81.9092C74.7081 81.9092 76.1882 78.5865 76.4998 75.7274C76.7335 73.8728 76.4998 73.7955 72.2931 73.5637C68.6317 73.4092 67.6969 73.5637 67.0737 74.7228Z" fill="#F07900"/>
<path d="M57.3361 81.8318C56.5571 82.6045 55.9339 84.7682 55.856 86.6227L55.7002 90.0227H59.5953H63.4904L63.4125 87.1636C63.3346 83.9954 61.3091 80.3636 59.6732 80.3636C59.1279 80.3636 58.0372 80.9818 57.3361 81.8318Z" fill="#F07900"/>
<path d="M66.606 82.6817C66.3723 83.1453 66.3723 84.6135 66.6839 86.159L67.1514 88.8635L69.4105 87.2408C70.6569 86.3908 71.6697 85.4635 71.6697 85.1544C71.6697 84.1499 67.0735 81.9863 66.606 82.6817Z" fill="#F07900"/>
<path d="M49.0784 84.0726L47.2866 85.4635L49.4679 87.1635C50.7143 88.0908 51.727 88.7863 51.8049 88.709C51.8828 88.5544 52.1944 87.1635 52.506 85.5408C53.1293 82.2181 51.9607 81.7544 49.0784 84.0726Z" fill="#F07900"/>
<path d="M257.621 55.9454C244.456 60.659 240.95 77.659 251.233 87.5499C262.997 98.8317 283.017 90.2545 283.017 73.8727C283.017 60.659 270.164 51.5408 257.621 55.9454ZM271.955 58.8045C281.693 63.6726 284.108 76.1908 277.097 84.6908C273.981 88.3999 269.462 90.409 264.165 90.409C249.597 90.4863 241.807 74.1045 251 62.9772C256.219 56.7954 264.555 55.0954 271.955 58.8045Z" fill="#282828"/>
<path d="M262.296 60.659C262.997 62.1272 263.854 63.3635 264.087 63.3635C264.321 63.3635 265.178 62.1272 265.879 60.659L267.203 57.9544H264.087H260.971L262.296 60.659Z" fill="#282828"/>
<path d="M255.362 60.6591C251.779 63.0545 251.701 64.1363 254.817 66.7636C257.466 69.0045 260.036 69.3909 260.66 67.6136C261.283 66.0682 260.426 61.6636 259.179 60.0409C258.322 58.8045 258.011 58.8818 255.362 60.6591Z" fill="#282828"/>
<path d="M268.294 62.2819C265.646 68.541 269.385 71.0137 274.059 66.2228L276.708 63.5182L273.981 61.5091C270.475 58.8819 269.696 58.9591 268.294 62.2819Z" fill="#282828"/>
<path d="M275.773 67.6136C274.137 69.3136 274.059 69.7773 274.994 70.3182C276.708 71.4 279.668 71.2454 279.668 70.0864C279.59 69.6227 279.2 68.3864 278.655 67.3818L277.642 65.6045L275.773 67.6136Z" fill="#282828"/>
<path d="M249.364 67.8453C247.884 70.6272 248.273 71.8635 250.766 71.8635C253.96 71.8635 254.505 70.4726 252.168 68.2317C250.221 66.2999 250.221 66.2999 249.364 67.8453Z" fill="#282828"/>
<path d="M261.75 71.4772C260.582 72.8681 260.971 74.9545 262.763 76.0363C265.412 77.7363 268.45 73.9499 266.424 71.4772C265.178 70.009 262.997 70.009 261.75 71.4772Z" fill="#282828"/>
<path d="M271.488 74.491C270.242 75.4183 270.086 75.8819 270.787 77.041C271.644 78.4319 276.318 81.9092 277.331 81.9092C278.266 81.9092 279.824 77.5046 279.512 75.5728C279.356 74.1046 278.733 73.7955 276.162 73.5637C274.293 73.4092 272.423 73.7955 271.488 74.491Z" fill="#282828"/>
<path d="M249.52 74.6455C248.974 74.8773 248.507 75.8046 248.507 76.5773C248.507 78.3546 250.61 82.6819 251.467 82.6819C251.779 82.6819 253.337 81.6001 254.973 80.2864C259.179 76.8864 258.79 74.6455 253.96 74.4137C252.012 74.3364 249.987 74.4137 249.52 74.6455Z" fill="#282828"/>
<path d="M261.361 82.7591C260.66 84.0727 260.192 86.0045 260.348 87.1636C260.582 89.0955 260.893 89.25 264.087 89.25C267.047 89.25 267.593 89.0182 267.826 87.6273C267.982 86.7 267.515 84.6909 266.892 83.1455C265.412 79.5909 263.074 79.4364 261.361 82.7591Z" fill="#282828"/>
<path d="M270.319 83.9955C270.319 87.6273 271.254 88.2455 273.825 86.2364L276.084 84.4591L273.669 83.1455C270.397 81.5227 270.319 81.5227 270.319 83.9955Z" fill="#282828"/>
<path d="M254.272 83.8409C252.791 84.9228 252.869 85 254.739 86.4682C256.842 88.1682 257.855 87.4728 257.855 84.3818C257.855 82.45 256.453 82.2182 254.272 83.8409Z" fill="#282828"/>
<path d="M8.17992 72.4045C7.0114 78.7409 5.84287 84.4591 5.60916 85.2318C5.29756 86.4682 5.68706 86.6227 8.25782 86.3909L11.296 86.1591L12.5424 79.9773C13.2435 76.5773 13.9447 73.1 14.1005 72.25C14.3342 71.0909 15.6585 72.7136 19.1641 78.4318C23.3708 85.3864 24.0719 86.1591 26.331 86.3909C29.1355 86.7 28.5902 88.0136 31.8621 72.0182L34.0433 61.0455H31.1609H28.2007L26.8764 68.1545C26.0973 72.0955 25.3183 75.65 25.0846 75.9591C24.9288 76.3455 22.6697 73.1 20.0989 68.85C15.7364 61.5864 15.269 61.0455 12.9319 61.0455H10.4391L8.17992 72.4045Z" fill="#F07900"/>
<path d="M91.9241 61.2773C91.9241 61.4319 90.9114 66.7637 89.5871 73.0228C88.3406 79.2819 87.25 84.9228 87.25 85.541C87.25 87.0092 103.454 86.9319 107.115 85.4637C111.711 83.5319 113.347 77.8137 110.231 74.6455C109.14 73.641 109.218 73.2546 111.01 71.5546C114.36 68.2319 113.347 63.441 108.985 61.8955C106.803 61.1228 91.9241 60.6592 91.9241 61.2773ZM106.57 67.7683C106.959 70.1637 103.999 71.8637 99.4806 71.8637C95.8971 71.8637 95.6634 71.7864 96.1308 70.0864C96.3645 69.1592 96.5982 67.7683 96.5982 66.9955C96.5982 65.7592 97.2214 65.6046 101.506 65.8364C105.791 66.0683 106.336 66.2228 106.57 67.7683ZM105.479 77.4273C106.102 78.4319 106.102 79.2046 105.479 80.1319C104.388 81.9092 93.3263 82.6819 93.7938 80.9819C94.0275 80.441 94.3391 78.9728 94.5728 77.8137C95.0402 75.7273 95.196 75.6501 99.8701 75.8819C103.376 76.0364 104.856 76.5001 105.479 77.4273Z" fill="#F07900"/>
<path d="M121.916 62.7454C121.683 63.75 120.514 69.4681 119.268 75.4954L117.086 86.5454H120.047C121.761 86.5454 123.085 86.3909 123.085 86.3136C123.085 86.159 124.175 80.8272 125.422 74.5681C126.746 68.309 127.759 62.6681 127.759 62.05C127.759 61.4318 126.824 61.0454 125.032 61.0454C122.851 61.0454 122.228 61.3545 121.916 62.7454Z" fill="#F07900"/>
<path d="M135.939 62.7454C135.705 63.75 134.537 69.4681 133.29 75.4954L131.109 86.5454H140.613H150.195L150.506 84.2272L150.896 81.909H144.352C138.042 81.909 137.886 81.8318 138.276 80.1318C139.366 75.65 141.781 63.0545 141.781 62.1272C141.781 61.4318 140.847 61.0454 139.055 61.0454C136.874 61.0454 136.25 61.3545 135.939 62.7454Z" fill="#F07900"/>
<path d="M160.322 73.7954L151.987 86.5454H155.259C158.219 86.5454 158.686 86.3136 160.011 83.8409L161.491 81.1363H167.567H173.644L174.189 83.8409C174.656 86.3909 174.89 86.5454 177.694 86.5454C181.2 86.5454 181.2 87.9363 177.85 74.5681C174.267 59.809 174.812 61.0454 171.54 61.0454C168.658 61.0454 168.658 61.1227 160.322 73.7954ZM171.774 72.7909L172.319 76.4999H168.736C166.788 76.4999 165.152 76.2681 165.152 76.0363C165.152 75.8045 166.243 73.7181 167.645 71.3999C170.45 66.8409 170.917 66.9954 171.774 72.7909Z" fill="#282828"/>
<path d="M189.691 62.7455C188.055 69.7 186.964 76.2682 186.964 78.9727C186.964 88.2455 202.545 90.2546 207.92 81.6C208.855 80.2091 210.413 74.9545 211.426 70.0091L213.217 61.0455H210.335H207.453L205.661 69.7C203.635 79.5909 202.077 81.9091 197.637 81.9091C196.235 81.9091 194.677 81.5227 194.131 80.9818C192.885 79.7455 192.963 74.9545 194.365 68.7727C196.001 61.2773 196.001 61.0455 192.807 61.0455C190.626 61.0455 190.003 61.3545 189.691 62.7455Z" fill="#282828"/>
<path d="M217.892 61.5863C217.58 61.8181 217.346 62.8999 217.346 63.9044C217.346 65.5272 217.658 65.6817 221.241 65.6817H225.136L224.669 68.1544C224.357 69.5453 223.5 73.9499 222.721 77.9681C221.864 81.909 221.241 85.4635 221.241 85.9272C221.241 86.3135 222.566 86.5453 224.124 86.3908L227.006 86.159L229.031 76.1135L231.057 66.0681L235.264 65.6817C239.237 65.2953 239.548 65.1408 239.782 63.1317L240.016 61.0453H229.187C223.267 61.0453 218.125 61.2772 217.892 61.5863Z" fill="#282828"/>
<path d="M300.701 69.8545C300.701 70.009 300 73.5636 299.143 77.659C297.196 87.0863 297.196 87.3181 299.455 87.3181C301.091 87.3181 301.402 86.8545 301.87 83.7636C302.882 76.9636 303.428 76.5 305.064 81.059C305.843 83.3772 307.011 85.3863 307.634 85.6181C308.18 85.85 309.426 85 310.439 83.7636C311.374 82.5272 312.932 80.6727 313.944 79.5909L315.58 77.659L315.191 79.5909C313.633 87.4727 313.633 87.3181 315.814 87.3181C316.905 87.3181 317.84 87.1636 317.84 87.009C317.84 86.8545 318.541 83.3 319.398 79.2045C321.345 69.7772 321.345 69.5454 319.242 69.5454C317.995 69.6227 316.204 71.1681 313.321 74.9545C311.062 77.9681 308.959 80.209 308.647 80.0545C308.336 79.9 307.245 77.4272 306.154 74.6454C304.596 70.3954 303.973 69.5454 302.493 69.5454C301.48 69.5454 300.701 69.7 300.701 69.8545Z" fill="#282828"/>
<path d="M326.798 71.2454C326.564 72.2499 325.707 76.2681 324.928 80.209L323.448 87.4727L330.771 87.1636C337.704 86.9317 338.172 86.7772 340.431 84.6136C343.002 82.0636 344.092 78.0454 343.235 74.5681C342.456 71.3999 338.561 69.5454 332.485 69.5454C327.655 69.5454 327.188 69.6999 326.798 71.2454ZM338.327 75.109C341.288 78.6636 337.393 84.2272 331.784 84.2272C329.369 84.2272 328.746 83.9181 328.746 82.8363C328.746 81.4454 330.07 75.3408 330.693 73.4863C331.316 71.8636 336.614 73.0227 338.327 75.109Z" fill="#282828"/>
<path d="M289.25 83.2228C287.77 83.7637 288.003 87.0864 289.483 87.6273C291.197 88.3228 293.067 86.6228 292.755 84.691C292.522 83.0682 291.041 82.4501 289.25 83.2228Z" fill="#282828"/>
</svg>
